<svg xmlns="http://www.w3.org/2000/svg" xmlns:xlink="http://www.w3.org/1999/xlink" width="33" height="33"
     viewBox="0 0 33 33">
    <defs>
        <clipPath id="a">
            <path d="M2.728,22.708A16.1,16.1,0,0,1,0,14.11,8.844,8.844,0,0,1,1.1,9.64,6.315,6.315,0,0,1,6.464,6.38C8.155,6.35,9.708,7.5,10.738,7.5c1.015,0,2.844-1.337,4.981-1.215a6.093,6.093,0,0,1,4.766,2.583,5.922,5.922,0,0,0-2.814,4.893q0,.029,0,.058A5.793,5.793,0,0,0,21.146,19.1a14.024,14.024,0,0,1-1.783,3.675c-1.092,1.6-2.214,3.167-4,3.2-1.722.031-2.291-1.03-4.274-1.03-1.968,0-2.614,1-4.243,1.061L6.76,26C5.082,26,3.8,24.28,2.728,22.708ZM10.507,6a3.821,3.821,0,0,1-.029-.469,5.7,5.7,0,0,1,1.413-3.544A5.779,5.779,0,0,1,15.735,0q.024.243.024.485a5.973,5.973,0,0,1-1.377,3.681,4.957,4.957,0,0,1-3.591,1.841Q10.649,6.008,10.507,6Z"
                  transform="translate(73.779 -9.97)" fill="#fcfcfc"/>
        </clipPath>
    </defs>
    <g transform="translate(-640 -686)">
        <g transform="translate(571.679 699.323)" clip-path="url(#a)">
            <g transform="translate(73.779 -9.97)">
                <path d="M14.381,4.167A4.835,4.835,0,0,1,10.507,6a5.482,5.482,0,0,1,1.384-4.013A5.779,5.779,0,0,1,15.734,0a5.838,5.838,0,0,1-1.353,4.167m1.338,2.122C13.582,6.165,11.752,7.5,10.737,7.5,9.707,7.5,8.155,6.35,6.463,6.38A6.315,6.315,0,0,0,1.1,9.64c-2.306,3.967-.6,9.84,1.63,13.068,1.092,1.6,2.4,3.352,4.12,3.29,1.63-.061,2.275-1.061,4.243-1.061,1.983,0,2.552,1.061,4.274,1.03,1.783-.031,2.906-1.6,4-3.2A14.023,14.023,0,0,0,21.146,19.1a5.793,5.793,0,0,1-3.475-5.273,5.915,5.915,0,0,1,2.814-4.951,6.093,6.093,0,0,0-4.766-2.583"
                      transform="translate(0 0)" fill="#fcfcfc"/>
                <path d="M14.381,4.167A4.835,4.835,0,0,1,10.507,6a5.482,5.482,0,0,1,1.384-4.013A5.779,5.779,0,0,1,15.734,0a5.838,5.838,0,0,1-1.353,4.167m1.338,2.122C13.582,6.165,11.752,7.5,10.737,7.5,9.707,7.5,8.155,6.35,6.463,6.38A6.315,6.315,0,0,0,1.1,9.64c-2.306,3.967-.6,9.84,1.63,13.068,1.092,1.6,2.4,3.352,4.12,3.29,1.63-.061,2.275-1.061,4.243-1.061,1.983,0,2.552,1.061,4.274,1.03,1.783-.031,2.906-1.6,4-3.2A14.023,14.023,0,0,0,21.146,19.1a5.793,5.793,0,0,1-3.475-5.273,5.915,5.915,0,0,1,2.814-4.951,6.093,6.093,0,0,0-4.766-2.583"
                      transform="translate(0 0)" fill="#fcfcfc"/>
            </g>
        </g>
    </g>
</svg>