<svg xmlns="http://www.w3.org/2000/svg" width="33" height="33" viewBox="0 0 33 33"><g transform="translate(0.088 0.146)"><rect width="33" height="33" transform="translate(-0.088 -0.146)" fill="none"/><path d="M25.175,34.7V54.478a2.7,2.7,0,0,1-2.7,2.7H17.685V47.218H21.09l.489-3.8H17.685V40.991c0-1.1.3-1.849,1.883-1.849h2.012V35.748a27.05,27.05,0,0,0-2.933-.152c-2.9,0-4.889,1.77-4.889,5.024v2.8H10.34v3.8h3.422v9.952H2.7a2.7,2.7,0,0,1-2.7-2.7V34.7A2.7,2.7,0,0,1,2.7,32H22.478A2.7,2.7,0,0,1,25.175,34.7Z" transform="translate(3.91 -27.532)" fill="#fff"/></g></svg>