<svg xmlns="http://www.w3.org/2000/svg" width="33" height="33" viewBox="0 0 33 33"><rect width="33" height="33" fill="none"/><g transform="translate(3.831 3.716)"><path d="M11.851,2.525A14.185,14.185,0,0,0,11.627,0H0V4.775H6.644A5.679,5.679,0,0,1,4.18,8.5v3.1H8.17a12.04,12.04,0,0,0,3.681-9.073Z" transform="translate(12.345 10.1)" fill="#4285f4"/><path d="M11.032,10A11.786,11.786,0,0,0,19.2,7.008l-3.99-3.1a7.42,7.42,0,0,1-4.18,1.178A7.357,7.357,0,0,1,4.124,0H0V3.2A12.34,12.34,0,0,0,11.032,10Z" transform="translate(1.313 14.69)" fill="#34a853"/><path d="M5.437,7.889a7.3,7.3,0,0,1,0-4.691V0H1.313a12.36,12.36,0,0,0,0,11.088l4.124-3.2Z" transform="translate(0 6.801)" fill="#fbbc05"/><path d="M11.032,4.91a6.669,6.669,0,0,1,4.719,1.846l3.541-3.541A11.864,11.864,0,0,0,11.032,0,12.34,12.34,0,0,0,0,6.8L4.124,10A7.357,7.357,0,0,1,11.032,4.91Z" transform="translate(1.313)" fill="#ea4335"/><path d="M0,0H24.69V24.69H0Z" fill="none"/></g></svg>