<svg xmlns="http://www.w3.org/2000/svg" width="261" height="53.504" viewBox="0 0 261 53.504"><g transform="translate(-146.386 -83)"><g transform="translate(398.525 87.165)"><path d="M544.065,122.207a4.408,4.408,0,0,1-3.187-1.21,4.035,4.035,0,0,1-1.256-3.03v-.632a3.859,3.859,0,0,1,1.274-2.93,4.457,4.457,0,0,1,3.17-1.193,4.405,4.405,0,0,1,3.149,1.2,3.871,3.871,0,0,1,1.269,2.922v.632A4.038,4.038,0,0,1,547.23,121,4.371,4.371,0,0,1,544.065,122.207Zm3.583-4.24v-.632A3.043,3.043,0,0,0,546.618,115a3.635,3.635,0,0,0-2.554-.944,3.851,3.851,0,0,0-1.842.439,3.267,3.267,0,0,0-1.281,1.184,3.1,3.1,0,0,0-.46,1.658v.632a3.217,3.217,0,0,0,1.011,2.436,3.91,3.91,0,0,0,5.135,0A3.2,3.2,0,0,0,547.647,117.967Zm-4.316,1.837H542.5v-4.367h1.982a1.323,1.323,0,0,1,.965.376,1.236,1.236,0,0,1,.384.923,1.4,1.4,0,0,1-.245.823,1.129,1.129,0,0,1-.632.459l1,1.787h-.986l-.86-1.686h-.784Zm0-3.751v1.458h.717q.943,0,.944-.741a.646.646,0,0,0-.228-.531.915.915,0,0,0-.6-.185Z" transform="translate(-539.621 -113.211)" fill="#fff"/></g><g transform="translate(230.004 125.748)"><path d="M251.589,187.881V191.3h-.919v-8.346h.919v1.176a3.4,3.4,0,0,1,2.946-1.4,3.277,3.277,0,1,1,0,6.554A3.4,3.4,0,0,1,251.589,187.881Zm0-2.846v1.938a2.891,2.891,0,0,0,2.711,1.49,2.464,2.464,0,1,0,0-4.919A2.893,2.893,0,0,0,251.589,185.035Z" transform="translate(-250.67 -180.767)" fill="#fff"/><path d="M266.167,187.657v-8.291h.919v8.291Z" transform="translate(-257.129 -179.366)" fill="#fff"/><path d="M278.123,183.112v6.106H277.2v-1.266a3.3,3.3,0,0,1-2.914,1.49,2.6,2.6,0,0,1-2.8-2.879v-3.451h.919V186.5a1.867,1.867,0,0,0,2.062,2.128,2.9,2.9,0,0,0,2.734-1.68v-3.832Z" transform="translate(-259.347 -180.927)" fill="#fff"/><path d="M293.168,188.385c0,2.2-1.647,3.137-3.619,3.137a5.434,5.434,0,0,1-2.935-.818l.437-.706a4.385,4.385,0,0,0,2.409.706c1.793,0,2.79-.728,2.79-2.207v-.616a3.543,3.543,0,0,1-2.947,1.4,3.277,3.277,0,1,1,0-6.554,3.4,3.4,0,0,1,2.947,1.4v-1.176h.919Zm-.919-1.412v-1.938a2.894,2.894,0,0,0-2.711-1.491,2.464,2.464,0,1,0,0,4.919A2.892,2.892,0,0,0,292.249,186.973Z" transform="translate(-265.389 -180.767)" fill="#fff"/><path d="M315.919,187.817l-.84-.616a4.908,4.908,0,0,1-3,.84c-2.24,0-3.921-1.131-3.921-2.61a2.429,2.429,0,0,1,1.624-2.163,1.833,1.833,0,0,1-.672-1.4c0-1.277,1.187-2.118,2.879-2.118a3.358,3.358,0,0,1,3.317,2.073l-.829.336a2.454,2.454,0,0,0-2.5-1.558c-1.2,0-1.9.482-1.9,1.222,0,.695.672,1.12,1.647,1.838l3.271,2.4a3.145,3.145,0,0,0,.572-1.916h.919a3.97,3.97,0,0,1-.773,2.442l1.681,1.233Zm-1.58-1.154-3.574-2.633c-.124-.089-.236-.168-.347-.258a1.741,1.741,0,0,0-1.289,1.6c0,1.254,1.434,1.814,3.014,1.814A4.134,4.134,0,0,0,314.339,186.662Z" transform="translate(-274.629 -179.526)" fill="#fff"/><path d="M333.645,187.881V191.3h-.919v-8.346h.919v1.176a3.4,3.4,0,0,1,2.946-1.4,3.277,3.277,0,1,1,0,6.554A3.4,3.4,0,0,1,333.645,187.881Zm0-2.846v1.938a2.892,2.892,0,0,0,2.711,1.49,2.464,2.464,0,1,0,0-4.919A2.894,2.894,0,0,0,333.645,185.035Z" transform="translate(-284.87 -180.767)" fill="#fff"/><path d="M348.223,187.657v-8.291h.919v8.291Z" transform="translate(-291.328 -179.366)" fill="#fff"/><path d="M359.54,185.674v2.2a2.2,2.2,0,0,0,.292,1.188h-.975a1.872,1.872,0,0,1-.257-.975v-.023a3.365,3.365,0,0,1-2.767,1.221c-1.334,0-3.116-.538-3.116-2.162s1.781-2.163,3.116-2.163a3.334,3.334,0,0,1,2.767,1.221v-.5c0-1.479-.84-2.151-2.521-2.151a4.24,4.24,0,0,0-2.4.706l-.426-.672a5.694,5.694,0,0,1,2.981-.829C358.286,182.727,359.54,183.736,359.54,185.674Zm-.918,1.333a2.991,2.991,0,0,0-2.711-1.288c-.9,0-2.286.257-2.286,1.4s1.39,1.4,2.286,1.4a3.016,3.016,0,0,0,2.711-1.289Z" transform="translate(-293.201 -180.767)" fill="#fff"/><path d="M373.5,183.112l-4.761,8.346h-1l1.58-2.666-3.25-5.68h1.031l2.711,4.75,2.678-4.75Z" transform="translate(-298.769 -180.927)" fill="#fff"/><path d="M393.811,183.112l-4.761,8.346h-1l1.58-2.666-3.25-5.68h1.031l2.711,4.75,2.678-4.75Z" transform="translate(-307.233 -180.927)" fill="#fff"/><path d="M400.309,186c0-2.017,1.378-3.294,3.709-3.294s3.709,1.277,3.709,3.294-1.378,3.283-3.709,3.283S400.309,188.019,400.309,186Zm6.487,0c0-1.658-1.187-2.476-2.778-2.476s-2.778.818-2.778,2.476,1.187,2.465,2.778,2.465S406.8,187.649,406.8,186Z" transform="translate(-313.037 -180.759)" fill="#fff"/><path d="M422.666,183.112v6.106h-.919v-1.266a3.3,3.3,0,0,1-2.913,1.49,2.605,2.605,0,0,1-2.8-2.879v-3.451h.918V186.5a1.867,1.867,0,0,0,2.062,2.128,2.9,2.9,0,0,0,2.734-1.68v-3.832Z" transform="translate(-319.59 -180.927)" fill="#fff"/><path d="M431.2,189.13v-6.106h.918v1.5a3.278,3.278,0,0,1,3.037-1.625v.829a3.034,3.034,0,0,0-3.037,1.837v3.563Z" transform="translate(-325.911 -180.839)" fill="#fff"/><path d="M456.016,183.112l-2.285,6.106h-.941l-1.939-5.109-1.961,5.109h-.941l-2.286-6.106h.952l1.86,5.064,1.928-5.064h.9l1.928,5.064,1.86-5.064Z" transform="translate(-331.94 -180.927)" fill="#fff"/><path d="M471.739,185.674v2.2a2.2,2.2,0,0,0,.292,1.188h-.975a1.878,1.878,0,0,1-.257-.975v-.023a3.365,3.365,0,0,1-2.768,1.221c-1.333,0-3.114-.538-3.114-2.162s1.782-2.163,3.114-2.163a3.334,3.334,0,0,1,2.768,1.221v-.5c0-1.479-.841-2.151-2.521-2.151a4.24,4.24,0,0,0-2.4.706l-.426-.672a5.689,5.689,0,0,1,2.98-.829C470.484,182.727,471.739,183.736,471.739,185.674Zm-.919,1.333a2.99,2.99,0,0,0-2.711-1.288c-.9,0-2.285.257-2.285,1.4s1.388,1.4,2.285,1.4a3.015,3.015,0,0,0,2.711-1.289Z" transform="translate(-339.964 -180.767)" fill="#fff"/><path d="M485.7,183.112l-4.761,8.346h-1l1.58-2.666-3.249-5.68h1.031l2.711,4.75,2.678-4.75Z" transform="translate(-345.532 -180.927)" fill="#fff"/></g><g transform="translate(374.605 92.67)"><path d="M513.9,129.6c-4.653,0-7.787,3.317-7.787,7.924s3.133,7.924,7.787,7.924a7.925,7.925,0,0,0,0-15.848Z" transform="translate(-501.735 -125.547)" fill="none"/><path d="M510.724,122.65c-7.049,0-12.117,4.745-12.117,12.163v20.916H500.8a2.188,2.188,0,0,0,2.188-2.188V142a9.38,9.38,0,0,0,8.477,4.607,11.346,11.346,0,0,0,11.565-11.84C523.025,127.626,517.957,122.65,510.724,122.65Zm.046,19.9c-4.654,0-7.786-3.317-7.786-7.924s3.133-7.924,7.786-7.924a7.925,7.925,0,0,1,0,15.848Z" transform="translate(-498.607 -122.65)" fill="#fff"/></g><path d="M449.722,134.628c0-6.91,5.068-11.978,12.255-11.978s12.255,5.068,12.255,11.978-5.068,11.979-12.255,11.979S449.722,141.539,449.722,134.628Zm20.087,0a7.833,7.833,0,1,0-7.832,7.924A7.522,7.522,0,0,0,469.809,134.628Z" transform="translate(-103.628 -29.98)" fill="#fff"/><path d="M413.342,124.852v11.573c0,4.239-2.257,6.127-5.436,6.127-3.086,0-5.39-1.981-5.39-6.127V124.834c0-.063-.013-.122-.019-.184a2.177,2.177,0,0,0-4.34,0c-.005.06-.017.118-.018.18v11.6c0,4.147-2.349,6.127-5.436,6.127-3.179,0-5.436-1.888-5.436-6.127V124.838c0-.065-.014-.126-.019-.189a2.177,2.177,0,0,0-4.339,0c-.005.063-.019.124-.019.189v11.587c0,6.957,4.054,10.182,9.4,10.182a8.675,8.675,0,0,0,8.016-4.515,8.629,8.629,0,0,0,8.016,4.515c5.345,0,9.4-3.225,9.4-10.182V124.838c0-.065-.013-.126-.019-.189a2.176,2.176,0,0,0-4.339,0c-.005.063-.019.124-.019.189" transform="translate(-75.773 -29.98)" fill="#fff"/><path d="M351.391,132.289c-3.793-.284-6.448-.692-6.448-2.97,0-2.441,3.2-2.76,5.7-2.76a11.38,11.38,0,0,1,5.868,1.592h0a1.971,1.971,0,0,0,1.971-3.414h0a15.066,15.066,0,0,0-7.636-2.173c-6.231,0-9.957,2.686-9.957,7.04,0,4.76,4.809,6.184,9.856,6.632,4.369.407,6.482,1.1,6.482,3.337s-2.35,3-5.771,3a12.357,12.357,0,0,1-7.678-2.976,2.133,2.133,0,0,0-1.787-.516,1.981,1.981,0,0,0-1.68,2.209,2.769,2.769,0,0,0,.812,1.609,1.274,1.274,0,0,0,.113.092,16.263,16.263,0,0,0,10.119,3.577c6.537,0,9.923-3.255,9.923-7.405C361.281,134.649,357.081,132.777,351.391,132.289Z" transform="translate(-58.024 -29.944)" fill="#fff"/><g transform="translate(254.107 83.318)"><path d="M307.288,129.6c-4.653,0-7.786,3.317-7.786,7.924s3.133,7.924,7.786,7.924a7.925,7.925,0,0,0,0-15.848Z" transform="translate(-295.126 -116.195)" fill="none"/><path d="M304.852,115.966a9.381,9.381,0,0,0-8.477,4.607V108.8a2.188,2.188,0,0,0-2.188-2.188H292v21.147c0,7.417,5.068,12.162,12.116,12.162,7.234,0,12.3-4.975,12.3-12.116A11.346,11.346,0,0,0,304.852,115.966Zm-.691,19.9c-4.653,0-7.786-3.317-7.786-7.924s3.133-7.924,7.786-7.924a7.925,7.925,0,0,1,0,15.848Z" transform="translate(-291.998 -106.614)" fill="#fff"/></g><path d="M243.113,134.628c0-6.91,5.068-11.978,12.255-11.978s12.255,5.068,12.255,11.978-5.068,11.979-12.255,11.979S243.113,141.539,243.113,134.628Zm20.087,0a7.833,7.833,0,1,0-7.832,7.924A7.521,7.521,0,0,0,263.2,134.628Z" transform="translate(-17.516 -29.98)" fill="#fff"/><path d="M229.8,106.614h-2.188v31.123h0a2.188,2.188,0,0,0,4.376,0h0V108.8A2.188,2.188,0,0,0,229.8,106.614Z" transform="translate(-11.057 -23.297)" fill="#fff"/><g transform="translate(187.402 83.318)"><path d="M192.914,129.6c-4.653,0-7.786,3.317-7.786,7.924s3.133,7.924,7.786,7.924a7.925,7.925,0,0,0,0-15.848Z" transform="translate(-180.752 -116.195)" fill="none"/><path d="M190.478,115.966A9.381,9.381,0,0,0,182,120.574V108.8a2.188,2.188,0,0,0-2.188-2.188h-2.188v21.147c0,7.417,5.068,12.162,12.116,12.162,7.234,0,12.3-4.975,12.3-12.116A11.346,11.346,0,0,0,190.478,115.966Zm-.691,19.9c-4.653,0-7.786-3.317-7.786-7.924s3.133-7.924,7.786-7.924a7.925,7.925,0,0,1,0,15.848Z" transform="translate(-177.624 -106.614)" fill="#fff"/></g><path d="M21.3,5A16.287,16.287,0,0,0,5.014,21.287v18.19s-.031,2.588,0,4.489c.093,5.734,9.013,4.191,10.022-.593.5-2.369-1.3-4.328-2.581-5.978-2.161-2.787-3.08-6.073,0-7.745,2.142-1.163,5.985-.88,6.232,2.625.127,1.806-1.907,4.346-.945,6.823,1.388,3.576,8.082,2.333,8.464-1.584.3-3.025-1.122-3.376-2.226-5.343a5.488,5.488,0,0,1,1.763-7.126c3.031-2.015,6.8-.276,5.54,3.579a21.5,21.5,0,0,1-1.419,2.922,4.3,4.3,0,0,0-.156,4.5c1.5,2.745,7.691,3.159,7.691-3.024V21.287A16.127,16.127,0,0,0,21.3,5ZM31.474,19.723s-3.107-4.637-7.732-3.357c-2.795.773-4.518,2.913-6.934,3.574a3.955,3.955,0,0,1-4.362-1.229c-1.629-1.865-1.039-4.889,1.55-6.722a11.744,11.744,0,0,1,9.144-1.723C28,11.339,31.841,14.885,31.474,19.723Z" transform="translate(141.386 78)" fill="#00c9aa"/></g></svg>